<svg 
  xmlns="http://www.w3.org/2000/svg" 
  id="Capa_1" enable-background="new 0 0 512 512" 
  height="512" 
  viewBox="0 0 512 512" 
  width="512">
  <g>
    <path d="m182.015 214.564v14.029c0 4.142 3.358 7.5 7.5 7.5s7.5-3.358 7.5-7.5v-14.029c0-4.142-3.358-7.5-7.5-7.5s-7.5 3.358-7.5 7.5z"/>
    <path d="m328.035 214.564v14.029c0 4.142 3.358 7.5 7.5 7.5s7.5-3.358 7.5-7.5v-14.029c0-4.142-3.358-7.5-7.5-7.5s-7.5 3.358-7.5 7.5z"/>
    <path d="m289.038 236.958c0 5.184-4.217 9.4-9.4 9.4-5.184 0-9.4-4.217-9.4-9.4 0-4.142-3.358-7.5-7.5-7.5s-7.5 3.358-7.5 7.5c0 5.184-4.217 9.4-9.4 9.4s-9.4-4.217-9.4-9.4c0-4.142-3.358-7.5-7.5-7.5s-7.5 3.358-7.5 7.5c0 13.455 10.946 24.401 24.4 24.401 6.556 0 12.512-2.604 16.9-6.825 4.389 4.222 10.344 6.825 16.9 6.825 13.454 0 24.4-10.946 24.4-24.401 0-4.142-3.358-7.5-7.5-7.5s-7.5 3.359-7.5 7.5z"/>
    <path d="m194.937 159.167c7.221 12.503 20.243 19.593 34.243 19.06 6.564 12.311 19.173 19.981 33.557 19.981s26.993-7.671 33.557-19.981c13.99.531 27.023-6.559 34.243-19.06 7.218-12.498 6.853-27.314-.596-39.174 7.449-11.86 7.813-26.676.596-39.172-7.222-12.505-20.243-19.601-34.244-19.061-6.564-12.309-19.173-19.98-33.557-19.979-14.384 0-26.993 7.671-33.557 19.981-14.005-.534-27.023 6.559-34.243 19.06-7.218 12.497-6.853 27.313.596 39.173-7.45 11.86-7.813 26.673-.595 39.172zm15.594-44.067-.095-.11c-7.907-9.174-6.48-19.791-2.509-26.667 3.972-6.877 12.456-13.417 24.379-11.148l.135.025c3.646.679 7.238-1.404 8.458-4.904 3.987-11.439 13.896-15.515 21.839-15.515 7.944 0 17.853 4.076 21.84 15.516 1.223 3.51 4.833 5.595 8.483 4.899l.136-.026c11.896-2.264 20.38 4.277 24.352 11.154 3.971 6.876 5.398 17.493-2.517 26.676l-.092.107c-2.417 2.813-2.415 6.971.005 9.781l.095.11c7.907 9.174 6.48 19.791 2.509 26.667-3.972 6.876-12.457 13.417-24.366 11.15l-.135-.025c-3.646-.688-7.249 1.397-8.471 4.902-3.988 11.44-13.896 15.516-21.84 15.516s-17.852-4.076-21.84-15.516c-1.065-3.057-3.94-5.032-7.078-5.032-.464 0-.935.043-1.406.133l-.136.025c-11.897 2.264-20.381-4.277-24.352-11.153-3.972-6.877-5.398-17.493 2.504-26.662l.093-.107c2.43-2.813 2.433-6.98.009-9.796z"/>
    <path d="m262.738 148.292c15.604 0 28.298-12.694 28.298-28.298s-12.694-28.298-28.298-28.298-28.298 12.695-28.298 28.298 12.694 28.298 28.298 28.298zm0-41.597c7.333 0 13.298 5.965 13.298 13.298 0 7.332-5.965 13.298-13.298 13.298s-13.298-5.966-13.298-13.298 5.965-13.298 13.298-13.298z"/>
    <path d="m462.851 200.226c0-110.405-89.82-200.226-200.225-200.226-50.113 0-98.072 18.609-135.042 52.4-3.057 2.795-3.271 7.539-.476 10.596 2.795 3.058 7.539 3.271 10.596.476 34.199-31.258 78.563-48.472 124.922-48.472 102.134 0 185.226 83.092 185.226 185.226 0 47.188-17.845 82.724-53.038 105.622-37.028 24.092-87.662 30.865-132.188 30.865-44.088 0-94.917-6.615-132.188-30.865-35.194-22.898-53.038-58.434-53.038-105.622 0-42.538 14.033-82.543 40.582-115.692 2.589-3.233 2.067-7.953-1.166-10.542s-7.953-2.067-10.542 1.166c-28.703 35.837-43.874 79.085-43.874 125.068 0 67.086 33.538 113.472 96.367 135.952-3.657 7.355-6.825 14.857-9.438 22.407-35.377-28.794-69.334-24.491-95.175 5.152-10.313 11.829-3.837 30.424 11.649 33.393 21.96 4.211 25.077 15.731 29.39 31.675 5.717 21.129 12.811 47.328 70.582 48.283 3.365 3.493 7.043 6.768 11.044 9.8 21.679 16.428 51.351 25.112 85.807 25.112 30.296 0 57.303-6.854 78.1-19.821 3.515-2.191 4.587-6.817 2.396-10.333-2.191-3.514-6.818-4.588-10.333-2.396-18.414 11.481-42.676 17.55-70.163 17.55-73.549 0-107.443-39.781-107.443-87.291 0-23.31 7.481-48.28 18.047-68.928 10.203 2.867 20.565 5.045 30.953 6.678-10.466 17.905-18.654 41.259-18.654 62.25 0 16.832 5.158 30.811 18.682 41.045 13.541 10.253 34.286 15.9 58.416 15.9 24.129 0 44.875-5.647 58.414-15.898 13.467-10.19 18.683-24.167 18.683-41.047 0-20.942-8.157-44.293-18.654-62.25 10.56-1.661 20.865-3.845 30.953-6.678 11.514 22.499 18.047 47.316 18.047 68.928 0 20.285-5.601 37.632-16.648 51.557-2.574 3.245-2.031 7.962 1.214 10.537 3.245 2.574 7.962 2.031 10.537-1.215 13.203-16.642 19.897-37.125 19.897-60.879 0-23.561-6.57-49.364-18.584-73.531 62.828-22.48 96.365-68.865 96.365-135.952zm-309.151 261.224c-35.044-3.352-39.247-18.891-44.028-36.563-4.401-16.267-9.878-36.512-41.044-42.489-4.098-.786-5.884-5.689-3.167-8.805 24.398-27.987 51.661-24.151 79.209.751-3.021 12.319-4.486 24.656-4.486 35.365-.002 18.084 3.899 35.909 13.516 51.741zm171.023-51.741c0 .881-.018 1.747-.053 2.597h-124.089c-.036-.85-.053-1.716-.053-2.597 0-6.896 1.117-14.666 3.251-22.729h117.692c2.135 8.063 3.252 15.833 3.252 22.729zm-62.097 41.945c-21.022 0-49.996-5.189-58.803-24.348h117.605c-8.791 19.119-37.679 24.348-58.802 24.348zm53.817-79.674h-107.635c3.186-7.847 7.173-15.504 11.675-22.388 13.803 1.459 27.984 2.121 42.142 2.121 14.255 0 28.562-.685 42.142-2.121 4.503 6.885 8.49 14.541 11.676 22.388z"/>
  </g>
</svg>